<?xml version="1.0" standalone="no"?>
<!DOCTYPE svg PUBLIC "-//W3C//DTD SVG 20010904//EN"
 "http://www.w3.org/TR/2001/REC-SVG-20010904/DTD/svg10.dtd">
<svg version="1.0" xmlns="http://www.w3.org/2000/svg"
 width="690.000000pt" height="690.000000pt" viewBox="0 0 690.000000 690.000000"
 preserveAspectRatio="xMidYMid meet">
<metadata>
Created by potrace 1.11, written by Peter Selinger 2001-2013
</metadata>
<g transform="translate(0.000000,690.000000) scale(0.100000,-0.100000)"
fill="#000000" stroke="none">
<path d="M2485 6890 c-3 -5 -20 -16 -38 -25 -18 -8 -48 -29 -67 -46 -19 -17
-46 -41 -60 -53 -35 -30 -130 -146 -159 -195 -13 -22 -29 -39 -34 -38 -5 1
-12 -4 -15 -12 -3 -10 0 -11 9 -5 8 4 -3 -15 -24 -43 -20 -28 -37 -53 -37 -55
0 -2 -27 -33 -60 -69 -33 -35 -60 -68 -60 -72 0 -4 -16 -22 -36 -40 -20 -18
-53 -48 -74 -67 -20 -19 -67 -60 -104 -90 -69 -55 -90 -86 -80 -117 5 -15 4
-15 -5 -3 -8 12 -11 11 -17 -5 -4 -11 -13 -23 -20 -28 -7 -4 -11 -14 -8 -21 3
-8 -3 -16 -15 -19 -21 -5 -30 -37 -11 -37 16 0 64 23 96 47 17 13 45 26 63 29
17 4 34 11 37 15 10 17 34 9 34 -11 0 -11 -5 -20 -12 -20 -6 0 -9 -3 -5 -6 3
-3 -3 -15 -13 -26 -19 -21 -50 -98 -54 -135 -1 -12 -8 -29 -15 -37 -8 -9 -13
-28 -13 -44 0 -15 -3 -31 -6 -36 -3 -6 -7 -19 -8 -30 -1 -12 -10 -61 -19 -111
-24 -128 -19 -210 11 -198 9 3 12 12 9 24 -4 11 -2 19 3 19 20 0 6 -40 -41
-120 -28 -47 -54 -87 -57 -90 -4 -3 -15 -19 -25 -37 -21 -36 -14 -54 12 -31
35 30 40 28 37 -15 -1 -23 -5 -51 -9 -62 l-7 -20 13 20 c17 28 16 28 29 20 9
-6 9 -10 -1 -16 -11 -7 -9 -9 6 -9 20 0 95 71 95 90 0 5 4 10 8 10 5 0 14 12
21 26 16 36 22 26 27 -43 3 -32 12 -77 21 -101 15 -42 16 -43 30 -22 11 15 13
32 7 63 -4 23 -7 45 -6 50 1 4 -2 7 -7 7 -5 0 -7 19 -5 43 5 45 7 88 5 125 -2
33 -27 27 -45 -13 -9 -19 -19 -35 -21 -35 -10 0 -45 35 -45 44 0 6 5 5 12 -2
7 -7 19 -12 28 -11 10 0 11 2 3 6 -8 3 -11 14 -7 29 5 20 3 23 -12 18 -18 -5
-18 -5 -1 6 9 6 17 15 17 20 0 5 -8 7 -17 4 -17 -5 -16 -5 0 6 11 7 16 18 12
30 -4 13 1 22 15 30 23 12 24 11 11 -23 -7 -17 -6 -24 4 -24 7 0 10 8 7 19 -2
10 1 18 7 18 6 0 11 -6 11 -12 0 -9 4 -8 10 2 12 19 13 33 1 26 -5 -3 -14 0
-20 8 -9 11 -6 13 18 12 19 0 27 -5 24 -13 -4 -9 0 -11 11 -7 24 9 14 29 -15
31 -13 0 -28 1 -33 2 -5 1 -3 8 4 16 10 12 9 15 -4 15 -10 0 -15 -4 -11 -9 3
-5 1 -12 -5 -16 -5 -3 -16 9 -23 27 -9 21 -16 28 -21 20 -4 -7 -2 -12 3 -12 6
0 11 -4 11 -10 0 -5 -9 -10 -20 -10 -16 0 -20 7 -20 35 0 28 4 35 20 35 15 0
22 9 27 30 6 32 27 40 37 15 3 -8 10 -15 16 -15 17 0 11 25 -10 38 -17 10 -18
15 -8 32 11 17 10 22 -2 30 -19 13 -46 7 -43 -8 2 -7 -1 -12 -6 -12 -6 0 -9 9
-8 20 1 12 8 20 19 20 22 0 22 -2 -1 46 -11 21 -15 41 -10 42 5 2 9 10 9 18 0
8 7 14 15 14 11 0 14 -7 9 -25 -4 -15 -2 -25 5 -25 6 0 12 15 12 33 2 34 5
101 8 130 0 9 6 17 12 17 14 0 39 -25 39 -39 0 -6 4 -11 10 -11 5 0 13 18 16
40 7 42 27 57 24 18 -3 -35 1 -65 7 -50 2 6 23 12 46 13 34 1 37 2 17 8 -17 5
-21 9 -12 15 6 4 16 5 21 1 6 -3 12 12 14 32 l4 38 3 -45 3 -45 7 45 7 45 3
-45 3 -45 7 40 7 40 2 -40 c2 -31 4 -35 10 -20 7 17 9 16 16 -13 7 -32 7 -33
31 -18 31 21 41 20 92 -6 26 -15 42 -30 42 -42 0 -16 -5 -17 -32 -11 -52 12
-71 11 -75 -2 -3 -7 2 -13 11 -13 9 0 16 -4 16 -10 0 -5 -7 -10 -15 -10 -8 0
-15 -4 -15 -10 0 -5 18 -10 39 -10 22 0 46 -3 54 -6 8 -3 17 2 21 11 3 9 2 13
-4 10 -15 -9 -51 5 -44 17 4 5 19 8 35 6 16 -3 31 0 33 6 2 6 5 4 5 -4 1 -8
-6 -28 -15 -45 -9 -16 -16 -47 -15 -68 1 -31 -3 -40 -18 -44 -21 -5 -36 -32
-25 -42 4 -3 9 0 11 7 9 24 19 11 15 -18 -4 -26 -7 -29 -20 -18 -13 11 -14 10
-4 -9 13 -24 17 -66 4 -47 -4 7 -8 -12 -8 -41 -1 -28 -7 -67 -13 -86 -15 -48
-34 -185 -33 -242 1 -27 -3 -57 -8 -67 -6 -11 -13 -45 -16 -77 -3 -32 -7 -63
-9 -70 -2 -6 -1 -13 2 -16 10 -11 13 -126 3 -132 -5 -3 -10 -19 -10 -34 0 -16
-7 -34 -15 -41 -9 -7 -13 -21 -10 -31 4 -11 1 -19 -5 -19 -7 0 -9 -7 -6 -17
11 -29 -4 -8 -27 38 -25 49 -46 61 -54 30 -3 -12 -8 -21 -12 -21 -3 0 -7 -10
-7 -22 -2 -23 -26 -93 -36 -103 -2 -3 -4 25 -2 62 1 38 4 68 5 68 3 0 8 57 9
94 0 18 5 42 11 53 7 14 7 23 -2 34 -15 18 -29 18 -29 -1 0 -8 -4 -15 -9 -15
-5 0 -7 -10 -5 -22 4 -21 3 -20 -7 2 -6 14 -12 30 -13 35 -1 6 -11 28 -20 50
l-18 40 -14 -32 c-13 -30 -12 -36 17 -85 47 -79 51 -96 40 -148 -6 -25 -12
-76 -14 -113 -3 -64 -2 -68 17 -65 12 2 20 9 18 16 -1 8 2 11 7 7 6 -3 8 -12
5 -19 -3 -7 2 -18 10 -25 12 -10 17 -8 27 10 6 13 13 30 14 39 5 37 18 80 25
80 13 0 37 -35 54 -80 10 -24 41 -68 72 -99 53 -53 64 -71 45 -71 -15 0 -4
-202 11 -212 18 -11 50 1 67 25 13 18 15 17 37 -29 13 -27 24 -54 24 -61 0 -7
13 -27 28 -45 15 -18 41 -53 56 -78 67 -105 142 -194 219 -260 45 -38 103 -90
129 -115 26 -25 50 -45 54 -45 4 0 15 -7 24 -15 10 -9 46 -20 81 -26 93 -16
298 -18 334 -4 35 13 68 9 62 -8 -2 -7 -37 -18 -77 -24 -90 -15 -166 -40 -202
-64 -14 -11 -31 -19 -38 -19 -6 0 -52 -40 -101 -90 -50 -49 -94 -90 -99 -90
-6 0 -10 -8 -10 -18 0 -24 -35 -56 -84 -76 -40 -17 -76 -50 -76 -71 0 -6 -25
-33 -55 -59 -30 -26 -72 -73 -91 -104 -43 -67 -71 -97 -105 -112 -57 -24 -279
-147 -298 -164 -12 -11 -29 -24 -39 -30 -62 -38 -92 -59 -92 -66 0 -5 -8 -11
-18 -14 -19 -6 -48 -31 -167 -145 -44 -42 -91 -83 -105 -91 -39 -24 -149 -131
-155 -151 -8 -25 -21 -24 -28 1 -3 11 -10 20 -16 20 -11 0 -12 -2 -15 -57 -4
-76 -41 -62 -64 23 -7 27 -18 44 -27 44 -20 0 -19 -11 9 -78 34 -81 39 -171 9
-168 -14 1 -19 -8 -21 -34 -8 -115 -45 -240 -72 -240 -19 0 -50 -30 -50 -48 0
-15 6 -15 31 -2 17 9 19 7 19 -18 0 -16 -7 -35 -15 -42 -21 -17 -19 -50 3 -50
18 0 37 35 73 138 12 34 25 62 29 62 4 0 12 -24 18 -52 13 -67 1 -192 -27
-273 -11 -33 -21 -69 -21 -80 0 -46 -22 -96 -45 -107 -13 -6 -26 -20 -30 -32
-3 -11 -17 -63 -31 -115 -17 -63 -32 -100 -47 -112 -27 -22 -37 -24 -37 -4 0
9 -6 12 -15 9 -9 -4 -15 -19 -15 -38 0 -47 -29 -136 -46 -143 -7 -3 -14 -10
-14 -17 0 -22 -130 -248 -159 -277 -9 -8 -27 -30 -41 -48 -14 -18 -39 -50 -57
-72 -33 -41 -49 -76 -39 -86 3 -4 6 -1 6 6 0 7 4 10 10 6 14 -9 75 61 173 200
10 13 23 24 29 22 7 -1 30 35 53 80 61 124 69 127 60 18 -5 -49 -9 -126 -10
-170 -2 -100 -26 -178 -82 -271 -24 -39 -43 -74 -43 -78 0 -8 43 -8 64 0 9 3
13 10 10 16 -3 5 2 18 11 28 9 10 18 24 20 32 8 36 18 58 25 58 4 0 11 12 15
27 4 19 9 23 14 14 6 -8 11 -9 15 -3 3 6 -1 18 -10 26 -8 9 -11 16 -5 16 6 0
8 6 5 14 -3 7 2 20 10 29 8 8 12 17 9 21 -6 6 3 42 33 136 20 65 18 80 -10 80
-32 0 -40 14 -24 42 6 13 11 34 9 48 -2 24 -1 23 26 -10 15 -19 42 -50 61 -69
32 -33 34 -33 50 -16 13 13 14 19 5 22 -7 3 -13 10 -13 17 0 7 -18 32 -40 56
-22 24 -40 46 -40 49 0 4 -9 12 -20 19 -14 8 -20 23 -20 47 0 19 4 35 9 35 5
0 7 10 3 22 -3 14 -2 19 6 14 7 -4 12 -1 12 8 0 9 6 17 13 18 6 0 17 2 22 2 6
1 15 4 20 8 14 9 37 -11 55 -47 8 -16 24 -43 35 -58 15 -22 17 -30 6 -36 -10
-7 -9 -9 3 -14 10 -4 16 -18 16 -37 0 -16 5 -30 10 -30 6 0 10 -6 10 -14 0 -7
7 -19 15 -26 21 -17 19 -40 -3 -40 -15 0 -18 -7 -17 -33 2 -36 21 -87 32 -87
4 0 17 10 30 22 20 18 23 19 23 5 0 -22 12 -21 38 3 12 11 23 20 25 20 3 0 2
-20 -1 -45 -3 -28 0 -50 8 -60 10 -12 9 -18 -4 -30 -9 -9 -16 -22 -17 -28 0
-7 -2 -22 -5 -34 -5 -28 12 -31 19 -3 6 24 37 17 37 -9 0 -9 7 -28 14 -43 13
-25 13 -28 0 -28 -8 0 -12 4 -9 10 3 5 1 10 -4 10 -6 0 -11 11 -11 24 0 14 -4
28 -10 31 -12 8 -13 -1 -1 -43 6 -20 6 -32 0 -32 -5 0 -9 -4 -9 -9 0 -4 12 -6
27 -3 l27 5 -29 -27 c-24 -23 -26 -27 -10 -24 13 2 20 -3 23 -17 10 -62 12
-66 31 -55 16 8 29 45 36 105 0 6 5 28 10 50 l9 40 7 -35 c5 -23 3 -37 -4 -42
-6 -4 -8 -10 -5 -13 9 -9 26 2 39 27 7 13 7 18 1 14 -6 -3 -14 -1 -18 5 -5 8
0 10 17 6 13 -3 54 -9 92 -13 61 -6 67 -5 67 12 1 18 1 18 11 2 5 -10 19 -18
29 -18 11 0 20 -4 20 -8 0 -4 -16 -7 -35 -7 -43 2 -36 -12 10 -21 19 -3 35
-10 35 -14 0 -5 14 -11 30 -15 26 -6 30 -11 30 -40 0 -70 -26 -65 375 -65 281
0 364 3 368 13 4 10 6 10 6 0 1 -19 2477 -19 2485 0 5 9 7 9 12 0 8 -18 214
-18 214 0 0 8 4 7 10 -3 9 -13 11 -13 20 0 6 10 10 11 10 3 0 -7 9 -13 20 -13
11 0 20 6 20 13 0 8 4 7 10 -3 8 -12 10 -12 10 5 0 20 -6 20 -167 19 -93 -1
-175 2 -183 7 -9 5 56 9 162 9 107 0 179 4 183 10 3 6 -4 11 -17 11 -17 1 -18
3 -5 6 9 2 15 9 11 14 -3 5 -11 6 -17 2 -7 -4 -6 0 2 10 12 15 10 17 -28 17
-22 0 -41 5 -41 10 0 16 -57 12 -64 -5 -7 -19 15 -29 49 -23 14 3 25 1 25 -3
0 -5 -37 -8 -82 -7 -71 1 -77 2 -38 8 l45 7 -45 3 -45 3 45 7 45 7 -40 1 c-52
2 -113 42 -99 64 3 5 13 0 22 -9 15 -16 31 -18 157 -13 77 4 119 7 93 8 l-48
2 -1 43 c-1 36 -2 38 -9 17 -8 -24 -8 -24 -9 -2 -1 28 -17 29 -25 0 -5 -22 -6
-22 -19 -4 -13 17 -14 17 -20 2 -4 -10 -12 -14 -19 -10 -6 4 -25 10 -41 13
-21 5 -31 13 -33 28 -3 20 -1 21 22 12 19 -6 31 -6 41 2 11 10 10 15 -9 33
l-23 21 22 3 c23 3 54 32 34 32 -6 0 -11 -4 -11 -10 0 -20 -25 -9 -36 15 -10
21 -8 28 12 50 12 14 27 25 33 25 20 0 21 20 1 55 -11 19 -20 37 -20 40 0 2
14 6 30 10 17 4 30 11 30 16 0 13 28 11 32 -3 8 -24 38 1 38 32 0 24 -6 33
-26 41 -26 9 -26 10 -8 24 16 13 17 14 2 9 -12 -4 -18 -1 -18 9 0 8 -9 17 -20
20 -11 3 -20 12 -20 21 0 21 10 20 25 -1 13 -17 45 -12 45 7 0 6 -4 8 -10 5
-6 -3 -7 1 -3 10 5 13 7 14 14 3 7 -10 11 -10 17 0 10 14 39 -14 62 -60 7 -16
20 -28 27 -28 17 0 45 -63 37 -83 -4 -12 3 -15 30 -14 20 1 36 5 36 9 0 4 5 8
10 8 6 0 10 -14 10 -31 0 -28 3 -31 23 -25 12 3 30 6 40 6 10 0 17 8 17 20 0
12 6 20 13 19 25 -3 38 1 32 11 -10 16 43 31 86 24 21 -4 39 -10 39 -15 0 -5
5 -9 10 -9 6 0 10 11 10 25 0 14 4 25 9 25 14 0 -10 -81 -25 -87 -8 -3 -14
-17 -14 -32 0 -30 -21 -81 -33 -81 -4 0 -5 -11 -1 -25 4 -15 2 -25 -5 -25 -6
0 -11 -10 -11 -22 0 -32 -11 -69 -19 -64 -4 3 -6 -8 -5 -22 1 -15 -2 -32 -7
-37 -4 -6 -11 -26 -14 -45 -3 -19 -10 -36 -16 -38 -5 -2 -9 -18 -9 -36 0 -18
-6 -38 -12 -44 -10 -10 -10 -15 2 -22 12 -8 13 -10 1 -10 -8 0 -12 -2 -10 -5
3 -2 15 -2 27 2 23 6 46 45 56 98 4 17 8 37 10 45 3 8 5 17 5 20 1 3 6 -2 11
-10 8 -11 9 -8 4 12 -4 18 1 42 16 72 12 25 19 50 15 56 -3 5 -1 10 4 10 6 0
11 10 11 23 0 46 45 151 61 142 5 -4 9 5 9 19 0 40 17 30 24 -14 7 -42 36 -58
36 -20 0 17 7 20 48 22 l47 1 -42 4 c-64 6 -52 23 16 23 45 0 60 4 65 16 5 12
2 15 -11 9 -37 -15 -53 -17 -53 -7 0 6 10 13 23 15 l22 4 -22 2 c-17 1 -23 7
-23 25 0 43 10 56 44 55 l31 -1 -30 -14 c-30 -14 -30 -14 15 -8 54 7 65 16 51
41 -10 17 -10 17 -11 1 0 -10 -4 -18 -10 -18 -21 0 -9 26 24 52 30 24 38 26
65 17 17 -6 30 -14 30 -17 -3 -21 3 -23 25 -8 17 10 26 12 28 4 3 -7 14 -9 31
-4 15 3 25 11 22 16 -8 13 -1 13 64 -6 31 -9 62 -18 68 -20 17 -4 5 -32 -15
-37 -16 -4 -16 -5 0 -6 9 0 19 3 22 8 10 15 43 1 56 -24 13 -24 52 -46 72 -41
7 1 10 1 6 -1 -12 -7 -9 -53 3 -53 6 0 9 8 5 18 -3 9 2 6 12 -8 9 -13 24 -32
33 -41 18 -18 31 -59 19 -59 -5 0 -10 6 -13 13 -2 6 -7 9 -11 6 -4 -4 3 -22
14 -40 16 -24 21 -28 17 -12 -3 13 1 24 8 27 9 3 12 -2 10 -15 -2 -10 0 -19 4
-19 4 0 8 -8 8 -17 -1 -57 3 -72 18 -67 8 4 15 1 15 -5 0 -6 7 -11 15 -11 10
0 15 10 15 33 -1 57 -17 105 -62 181 -44 73 -45 78 -56 203 -10 103 -16 131
-31 143 -10 9 -21 29 -24 45 -21 117 -92 304 -146 390 -24 37 -83 116 -106
141 -20 21 -56 71 -103 142 -27 40 -60 85 -73 100 -47 55 -90 112 -97 130 -7
18 -59 86 -94 124 -10 10 -18 21 -18 24 0 3 -6 12 -12 19 -29 32 -37 43 -33
47 2 2 -9 12 -25 23 -15 10 -35 31 -44 46 -17 29 -145 167 -248 269 -32 31
-58 64 -58 73 0 10 -4 17 -10 17 -18 0 -68 80 -75 120 -10 58 -86 116 -245
185 -8 3 -37 18 -65 33 -45 25 -51 31 -56 69 -4 36 -28 76 -60 103 -3 3 -12
17 -20 32 -20 38 -88 114 -219 245 -123 123 -158 146 -345 217 -76 30 -81 33
-106 82 -24 49 -39 86 -43 109 0 6 -6 19 -12 30 -10 18 -18 56 -40 180 -14 76
-11 119 9 123 11 2 17 -3 17 -15 0 -22 14 0 59 94 23 49 36 64 58 69 15 4 48
20 73 35 25 16 59 35 76 42 17 8 50 33 73 56 30 29 41 36 36 21 -3 -11 -2 -20
2 -20 5 0 17 -16 26 -35 17 -35 47 -48 47 -21 0 8 3 22 7 32 4 12 3 15 -5 10
-7 -4 -12 -2 -12 4 0 6 10 10 22 8 20 -3 26 6 45 62 12 36 22 75 22 88 1 12 7
25 14 28 9 3 13 21 13 52 -1 38 -4 47 -18 46 -11 -1 -18 5 -18 17 0 21 16 26
23 7 2 -7 2 8 -1 35 -3 29 -1 47 6 47 6 0 12 -6 14 -12 7 -19 55 6 63 32 6 20
9 19 35 -17 15 -21 29 -42 30 -48 1 -5 8 -14 17 -19 13 -7 13 -10 2 -18 -10
-7 -7 -8 11 -4 l25 5 -22 -19 c-13 -10 -23 -24 -23 -30 0 -7 -8 -10 -19 -7
-13 3 -18 1 -14 -9 2 -7 -1 -21 -7 -31 -11 -17 -11 -17 -6 0 3 11 2 15 -4 12
-6 -3 -10 -13 -10 -21 0 -9 -7 -22 -15 -30 -13 -14 -15 -13 -15 5 0 12 -5 21
-11 21 -7 0 -9 -10 -7 -25 4 -17 -3 -32 -23 -51 -15 -14 -25 -32 -23 -39 6
-16 54 -7 61 11 3 8 10 14 17 14 16 0 113 96 121 120 3 11 11 20 16 20 5 0 9
10 9 23 0 12 5 29 10 37 9 13 12 12 25 -4 8 -11 15 -29 15 -41 0 -12 7 -30 15
-41 15 -19 16 -19 33 5 9 13 28 34 41 47 18 18 25 37 27 73 3 78 45 143 127
201 37 26 57 57 57 89 0 10 7 24 15 31 8 7 15 17 15 22 0 5 9 28 20 50 11 23
20 50 20 59 0 10 5 21 11 25 9 5 8 165 -2 244 -1 8 -1 24 -1 34 2 18 3 18 26
-3 18 -17 26 -19 31 -10 5 8 4 10 -3 5 -7 -4 -12 -2 -12 6 0 7 -12 22 -26 34
-24 22 -50 89 -61 161 -3 18 -9 31 -13 28 -5 -3 -6 3 -3 14 3 10 0 22 -6 25
-6 4 -11 22 -11 41 0 19 -5 46 -11 62 -5 15 -9 57 -8 93 4 133 2 155 -21 200
-12 25 -28 52 -35 60 -7 8 -18 33 -25 55 -7 22 -23 59 -36 81 -13 23 -26 67
-30 97 -7 59 -18 86 -31 74 -4 -5 -3 -11 2 -15 6 -4 11 -20 13 -35 l3 -29 -28
34 c-36 42 -98 145 -108 178 -4 14 -16 40 -26 59 -11 18 -18 36 -15 38 16 17
109 -97 136 -166 19 -49 31 -62 24 -26 -6 35 -63 135 -80 142 -8 3 -14 9 -14
15 0 14 -27 38 -34 31 -3 -4 -6 1 -6 10 0 11 -5 14 -17 10 -11 -4 -14 -3 -9 5
4 7 3 12 -1 12 -5 0 -22 25 -38 55 -22 40 -43 64 -77 85 -27 17 -48 34 -48 38
0 5 -14 23 -30 41 l-30 31 -1224 0 c-783 0 -1227 -4 -1231 -10z m-625 -820 c0
-5 -8 -10 -17 -10 -15 0 -16 2 -3 10 19 12 20 12 20 0z m45 -110 c16 -17 16
-20 3 -15 -9 4 -19 13 -22 21 -7 19 -2 18 19 -6z m-30 -10 c3 -5 1 -10 -4 -10
-6 0 -11 5 -11 10 0 6 2 10 4 10 3 0 8 -4 11 -10z m-5 -61 c0 -10 -12 -11 -34
-3 -9 3 -14 10 -11 14 6 10 45 1 45 -11z m1690 -43 c0 -3 -4 -8 -10 -11 -5 -3
-10 -1 -10 4 0 6 5 11 10 11 6 0 10 -2 10 -4z m-15 -116 c-3 -49 -9 -120 -15
-157 -5 -38 -10 -87 -10 -110 0 -37 -3 -43 -25 -49 -30 -7 -33 -24 -5 -24 20
0 25 -13 21 -55 -5 -56 4 -123 25 -184 6 -18 27 10 70 93 41 80 52 86 106 57
60 -33 69 -44 73 -82 10 -92 16 -141 30 -219 9 -47 18 -103 20 -125 3 -22 7
-46 10 -52 5 -16 2 -16 -29 -1 -14 6 -28 18 -31 27 -5 16 -155 128 -210 157
-33 17 -141 54 -159 54 -6 0 -19 -9 -29 -20 -9 -11 -29 -20 -43 -20 -17 0 -28
-6 -31 -19 -3 -11 -14 -22 -25 -24 -34 -9 -14 -31 35 -41 29 -5 47 -13 47 -22
0 -8 -4 -14 -9 -14 -8 0 -19 -28 -27 -71 -2 -10 8 -18 28 -25 44 -13 50 -36 7
-27 l-32 6 19 -33 c29 -50 82 -100 107 -100 22 0 62 -19 42 -20 -5 0 -1 -7 9
-15 24 -18 87 -20 104 -3 9 9 12 9 12 -2 0 -7 3 -10 7 -7 3 4 12 2 20 -4 10
-9 13 -8 14 2 0 8 3 39 6 69 2 30 5 76 6 103 1 26 5 47 9 47 4 0 8 -3 8 -7 0
-5 19 -16 43 -26 45 -19 97 -60 97 -77 0 -5 11 -10 24 -10 22 0 23 -2 15 -50
-4 -28 -11 -60 -14 -70 -3 -11 -2 -27 3 -36 8 -15 12 -14 27 9 9 15 21 41 25
59 5 18 16 57 24 86 36 118 46 158 46 182 0 14 6 34 13 45 7 11 14 38 16 60 3
55 20 126 33 143 10 11 6 13 -23 10 l-34 -3 -22 -90 c-12 -49 -22 -99 -23
-110 0 -29 -42 -166 -48 -160 -3 3 -7 23 -8 45 -1 21 -7 54 -12 72 -6 18 -14
69 -17 113 -4 44 -9 91 -12 105 -12 58 -19 130 -12 130 4 0 9 -6 12 -12 2 -7
8 -9 13 -5 5 5 1 15 -11 23 -10 8 -21 25 -22 39 -3 20 1 25 19 25 20 1 21 2 7
13 -9 7 -14 18 -12 25 3 7 -1 10 -11 6 -10 -4 -16 -1 -16 7 0 8 11 15 25 15
18 2 25 -3 25 -17 0 -10 7 -19 15 -19 8 0 15 -5 15 -12 0 -22 89 -110 102
-102 7 4 9 -6 6 -28 -3 -27 0 -34 14 -35 13 -1 18 5 18 23 0 23 1 24 16 10 8
-9 20 -14 25 -10 6 3 9 -40 8 -109 -1 -63 1 -119 5 -125 3 -6 1 -12 -6 -14 -7
-3 -2 -7 10 -10 12 -4 25 -2 28 3 3 5 0 9 -7 9 -9 0 -9 3 0 14 11 13 16 59 27
221 6 100 9 123 17 131 4 4 7 -7 7 -25 0 -22 4 -31 13 -28 7 2 12 24 12 58 0
46 3 54 18 51 9 -2 17 2 17 8 0 14 33 13 48 -2 9 -9 12 -9 12 0 0 7 9 12 20
12 14 0 18 -5 13 -17 -5 -12 -2 -15 10 -10 11 4 17 1 17 -8 0 -8 -9 -15 -20
-15 -11 0 -20 -7 -20 -15 0 -8 -4 -15 -10 -15 -5 0 -10 -7 -10 -15 0 -24 17
-17 24 10 4 14 10 24 15 21 12 -8 3 -76 -14 -102 -8 -13 -15 -34 -15 -48 0
-14 -4 -28 -10 -31 -5 -3 -10 -21 -10 -39 0 -18 -6 -41 -14 -52 -14 -19 -6
-44 15 -44 10 0 46 76 74 158 11 34 24 60 27 57 3 -3 3 6 1 20 -3 15 -1 25 6
25 6 0 11 9 11 20 0 11 4 20 9 20 5 0 12 10 14 23 l4 22 8 -22 c9 -27 20 -29
33 -7 6 11 27 17 63 20 29 2 55 8 57 14 2 5 21 10 43 10 38 0 39 -1 39 -34 0
-19 -4 -38 -10 -41 -10 -6 -13 3 -11 45 0 14 -2 19 -5 13 -3 -7 -16 -13 -29
-13 -12 0 -28 -7 -35 -15 -9 -10 -9 -15 -1 -15 6 0 20 -9 31 -20 12 -12 25
-18 30 -15 6 4 10 -10 10 -32 0 -28 -3 -34 -10 -23 -8 13 -11 12 -25 -5 -8
-11 -14 -33 -12 -48 3 -20 0 -26 -10 -23 -16 7 -17 -16 -1 -32 9 -9 9 -15 1
-23 -6 -6 -9 -18 -6 -25 3 -9 -2 -14 -16 -14 -12 0 -21 -5 -21 -11 0 -5 6 -7
13 -3 9 6 9 5 -1 -8 -6 -8 -34 -60 -62 -114 -27 -54 -50 -94 -50 -89 0 6 -5 2
-11 -8 -5 -9 -7 -22 -4 -27 3 -6 2 -10 -2 -10 -5 0 -15 -17 -22 -37 -8 -20
-26 -58 -42 -85 -16 -27 -29 -54 -29 -60 0 -5 -7 -7 -16 -4 -9 3 -12 2 -9 -5
4 -5 -9 -30 -29 -54 -40 -48 -45 -65 -18 -65 19 0 54 33 91 88 13 18 25 31 28
28 3 -3 16 -1 29 4 16 6 24 6 24 -1 0 -6 5 -7 10 -4 21 13 9 -35 -16 -62 -53
-56 -73 -97 -79 -157 -4 -37 -2 -63 6 -72 15 -18 73 -18 88 0 6 7 33 22 59 31
57 22 126 66 130 83 3 17 -23 15 -38 -3 -7 -8 -18 -15 -24 -15 -6 0 -42 -16
-80 -35 -78 -39 -91 -42 -100 -19 -16 42 9 105 63 160 24 25 43 33 86 39 30 3
58 11 61 17 10 15 -17 28 -48 23 -32 -6 -37 13 -14 54 7 13 11 32 9 42 -6 22
23 37 40 20 8 -8 17 -6 33 10 l22 20 10 -30 c10 -30 26 -40 35 -23 3 4 -1 23
-7 42 -11 31 -10 40 8 72 12 21 24 38 27 38 3 0 19 -26 35 -57 28 -56 29 -64
29 -193 0 -132 -1 -136 -31 -193 -25 -45 -47 -68 -105 -109 -105 -74 -241
-128 -321 -128 l-62 0 -63 -62 c-35 -35 -63 -70 -63 -80 0 -9 -18 -31 -40 -48
-43 -34 -49 -47 -26 -56 20 -8 63 25 70 53 3 12 15 25 26 28 11 3 20 12 20 19
0 7 23 37 51 65 48 48 53 51 73 38 25 -17 51 -16 86 2 19 10 22 10 13 1 -6 -7
-9 -18 -7 -25 3 -7 1 -16 -5 -20 -6 -3 -11 -14 -11 -25 0 -10 -7 -21 -15 -24
-10 -3 -15 -1 -13 7 4 21 -13 58 -25 54 -28 -9 -31 -36 -13 -149 18 -121 44
-223 77 -303 11 -27 27 -71 35 -96 8 -26 21 -52 29 -59 8 -7 15 -16 15 -21 0
-8 51 -120 111 -245 23 -47 44 -73 89 -108 32 -25 62 -46 66 -46 25 0 93 -46
98 -66 15 -59 -14 -130 -82 -196 -29 -28 -100 -88 -106 -88 -3 0 -32 -19 -63
-42 -68 -50 -90 -65 -119 -77 -11 -5 -33 -20 -50 -33 -16 -13 -45 -31 -64 -38
-19 -8 -57 -29 -84 -47 -26 -18 -52 -33 -57 -33 -5 0 -27 -11 -49 -25 -22 -14
-46 -25 -53 -25 -24 0 -199 -79 -233 -105 -28 -22 -34 -33 -34 -64 0 -33 8
-70 27 -121 10 -26 13 -43 19 -130 l7 -86 -32 -27 c-18 -15 -41 -27 -52 -27
-31 0 -163 -64 -187 -91 -13 -13 -31 -54 -43 -91 -11 -37 -23 -70 -28 -72 -5
-3 -12 -22 -15 -41 -4 -19 -10 -35 -14 -35 -4 0 -19 -21 -33 -48 -19 -34 -25
-53 -19 -68 5 -13 3 -42 -4 -70 -11 -39 -15 -45 -21 -29 -19 53 -40 101 -51
115 -22 28 -34 112 -25 175 9 65 3 79 -71 160 -16 17 -28 35 -28 42 0 6 -3 13
-7 15 -12 5 -56 76 -83 131 -12 27 -25 70 -27 95 -2 26 -10 63 -17 82 -27 71
-35 107 -42 190 -4 47 -7 90 -6 97 2 6 -2 30 -7 53 l-9 42 36 -7 c42 -8 98
-48 117 -84 15 -30 63 -77 70 -69 9 9 -25 67 -63 106 -40 41 -111 92 -129 92
-6 0 -16 7 -23 15 -29 35 -6 320 47 563 14 65 18 73 42 77 14 3 49 12 77 20
28 8 87 15 132 15 79 0 82 -1 95 -27 8 -16 19 -61 26 -100 14 -79 31 -97 31
-33 0 44 -35 190 -55 230 -19 38 -33 73 -38 98 -4 17 -1 22 16 22 29 0 127 95
163 157 53 91 75 117 117 141 50 29 77 52 77 64 0 16 -30 8 -87 -22 -31 -17
-61 -30 -67 -30 -6 0 -27 -8 -46 -19 -19 -10 -55 -22 -80 -26 -24 -4 -51 -11
-60 -15 -29 -15 -127 -40 -154 -40 -15 0 -43 -7 -63 -15 -20 -9 -60 -17 -87
-19 -28 -2 -58 -7 -66 -10 -26 -9 -144 -14 -160 -6 -18 9 -54 24 -95 39 -17 6
-75 55 -130 109 -55 54 -117 110 -138 126 -20 16 -57 58 -81 95 -24 36 -59 84
-76 106 -18 22 -43 63 -56 92 -13 28 -28 54 -32 57 -4 2 -21 44 -37 93 -15 48
-34 102 -42 120 -7 17 -13 37 -13 45 0 16 -22 76 -38 105 -6 12 -10 28 -7 35
3 8 -1 30 -9 48 -12 29 -12 39 -1 60 10 21 10 45 -3 137 -15 107 -12 145 8
113 6 -9 10 -10 10 -3 0 6 6 18 13 25 7 7 18 26 25 41 7 16 17 25 23 21 7 -4
9 0 5 13 -4 12 1 27 13 39 10 11 22 30 25 42 6 18 3 22 -13 22 -13 0 -26 -12
-37 -35 -9 -19 -20 -35 -24 -35 -5 0 -11 -8 -15 -19 -3 -10 -17 -31 -30 -47
l-25 -29 6 55 c3 30 12 75 19 100 8 25 14 62 13 83 0 21 5 43 11 50 6 7 10 33
10 58 -1 24 6 65 15 91 9 25 18 64 20 85 4 47 15 75 27 67 5 -3 9 0 9 5 0 6
-6 11 -12 11 -9 0 -8 4 2 10 11 7 19 5 27 -7 11 -14 13 -13 22 8 5 14 16 31
26 39 14 12 18 12 25 -1 16 -24 30 -1 44 70 1 8 8 17 14 19 6 2 8 10 5 19 -4
11 -1 14 13 11 14 -2 18 -11 17 -33 -2 -30 -2 -29 15 7 19 43 37 51 28 13 -5
-20 -3 -23 11 -18 14 6 13 0 -6 -30 -12 -20 -19 -37 -16 -37 4 0 0 -11 -9 -25
-9 -13 -16 -31 -16 -38 0 -8 -7 -20 -16 -27 -8 -8 -21 -28 -29 -47 -8 -18 -19
-33 -25 -33 -6 0 -8 -4 -5 -10 3 -5 2 -10 -4 -10 -5 0 -13 -10 -16 -22 -6 -21
-28 -73 -46 -108 -4 -8 -12 -14 -19 -12 -6 1 -9 -2 -5 -8 3 -6 -1 -24 -9 -42
-18 -36 -20 -58 -6 -58 13 0 60 49 60 63 0 5 16 31 35 57 19 26 35 52 35 57 0
5 8 18 18 29 9 10 19 28 20 39 2 11 7 22 12 25 4 3 13 16 20 30 26 52 75 119
88 120 6 0 12 5 12 10 0 6 4 10 9 10 5 0 7 -10 3 -22 -5 -20 -3 -21 10 -10 10
8 35 12 65 10 44 -3 48 -5 45 -28 -1 -13 -6 -27 -10 -30 -15 -11 -34 -59 -28
-69 4 -6 2 -11 -3 -11 -6 0 -11 -6 -11 -14 0 -9 -7 -12 -20 -9 -17 5 -20 0
-20 -26 0 -28 3 -31 33 -32 76 -2 111 -9 126 -24 15 -15 14 -16 -10 -10 -16 4
-30 2 -33 -4 -4 -6 -3 -11 3 -11 20 0 -1 -30 -42 -60 -33 -24 -43 -27 -56 -17
-12 9 -13 9 -7 -1 4 -7 1 -15 -8 -18 -9 -3 -14 -9 -11 -14 2 -4 -11 -16 -30
-26 -19 -10 -35 -25 -35 -32 0 -7 -4 -10 -10 -7 -5 3 -10 -1 -10 -9 0 -9 -12
-23 -27 -33 -43 -27 -106 -76 -120 -93 -7 -8 -13 -11 -13 -6 0 6 -17 -6 -37
-25 -34 -30 -35 -30 -12 -4 36 42 62 86 55 93 -3 3 -6 0 -6 -6 0 -7 -6 -12
-12 -12 -7 0 -26 -17 -43 -37 -32 -38 -49 -55 -78 -75 -21 -16 -23 -24 -32
-175 -6 -106 -5 -123 8 -123 8 0 18 12 22 27 8 33 24 216 19 224 -3 6 72 49
86 49 5 0 7 -10 5 -23 -4 -18 2 -25 28 -35 25 -10 29 -14 18 -22 -9 -5 -22 -5
-34 2 -21 11 -17 -1 11 -34 8 -10 11 -18 6 -18 -5 0 -15 -9 -22 -21 -10 -16
-10 -24 -1 -35 15 -18 39 -1 39 28 0 18 2 17 33 -6 17 -13 45 -28 60 -31 21
-6 26 -12 22 -26 -7 -22 14 -26 33 -7 6 6 27 11 46 10 28 -1 39 4 56 28 18 26
21 40 17 104 -3 50 -12 89 -26 115 l-21 41 30 0 c16 0 32 4 35 10 8 13 -53 75
-82 84 -13 4 -23 13 -23 21 0 8 10 17 23 21 20 6 42 20 122 74 13 8 39 28 59
44 42 33 51 31 31 -4 -38 -66 -48 -90 -41 -97 4 -4 10 -2 15 5 15 24 40 -13
71 -106 17 -51 27 -98 23 -105 -4 -6 -9 -20 -10 -29 -1 -9 -14 -42 -28 -74
-29 -66 -33 -96 -9 -87 23 8 84 149 84 192 0 39 -30 137 -56 184 -8 15 -12 27
-8 27 3 0 1 7 -6 15 -14 17 -6 50 10 40 5 -3 10 -12 10 -18 0 -7 -4 -6 -10 3
-8 13 -10 13 -10 -1 0 -9 7 -19 15 -23 8 -3 15 -1 15 4 0 5 7 7 15 4 11 -4 15
1 16 17 0 23 1 23 9 4 l9 -20 0 20 c0 23 -17 67 -18 47 -1 -7 -5 -10 -11 -7
-5 3 -10 1 -10 -6 0 -7 -2 -10 -5 -7 -11 10 15 59 27 52 7 -4 8 -3 4 4 -9 14
105 162 121 157 7 -2 10 2 6 11 -3 8 1 14 11 14 9 0 16 -6 17 -12 0 -10 2 -10
6 0 2 6 12 12 21 12 10 0 23 10 31 22 14 22 14 22 21 3 8 -19 8 -19 17 4 8 19
11 21 16 8 4 -10 13 -14 26 -10 12 3 21 1 21 -6 0 -6 5 -11 10 -11 6 0 10 7
10 16 0 13 3 14 13 5 8 -6 17 -8 20 -4 4 3 7 1 7 -6 0 -8 -6 -11 -16 -7 -12 5
-14 1 -9 -15 5 -14 3 -19 -3 -15 -6 3 -13 -3 -17 -14 -3 -11 -11 -20 -16 -20
-5 0 -9 -9 -9 -20 0 -11 -5 -20 -10 -20 -6 0 -15 -10 -20 -22 -5 -14 -9 -17
-10 -8 0 10 -4 9 -13 -6 -10 -18 -70 -91 -112 -138 -13 -15 -17 -36 -8 -36 27
0 210 182 263 260 13 19 33 46 45 60 24 27 108 180 120 219 8 27 45 91 51 91
3 0 2 -40 -1 -90z m-858 38 c-3 -8 -6 -5 -6 6 -1 11 2 17 5 13 3 -3 4 -12 1
-19z m-122 -38 c0 -35 -20 -35 -21 0 -1 19 3 29 10 27 6 -2 11 -14 11 -27z
m112 -24 c-4 -9 -12 -16 -19 -16 -10 0 -10 2 1 9 9 6 12 18 8 37 -6 26 -5 27
5 7 6 -12 8 -29 5 -37z m-291 -31 c-1 -31 -6 -55 -11 -55 -6 0 -10 16 -8 38 2
27 0 31 -5 14 -10 -33 -27 -32 -27 1 -1 20 4 27 18 27 13 0 17 5 13 15 -3 9 0
15 8 15 9 0 12 -16 12 -55z m23 -17 c-1 -35 -2 -38 -8 -18 -7 23 -4 60 5 60 2
0 4 -19 3 -42z m227 15 c-2 -15 -8 -29 -14 -31 -8 -2 -9 5 -1 27 13 38 19 39
15 4z m-322 -17 c-3 -15 -8 -25 -11 -23 -2 3 -1 17 3 31 3 15 8 25 11 23 2 -3
1 -17 -3 -31z m393 12 c-3 -8 -6 -5 -6 6 -1 11 2 17 5 13 3 -3 4 -12 1 -19z
m-377 -63 c0 -16 -27 -32 -37 -21 -7 7 16 36 28 36 5 0 9 -7 9 -15z m550 -15
c0 -5 12 -13 28 -16 32 -8 64 -33 56 -45 -3 -5 3 -6 12 -2 11 4 13 8 6 11 -7
2 -12 9 -12 15 0 8 4 7 12 -1 7 -7 20 -12 30 -12 23 0 23 -19 1 -27 -10 -3
-42 -31 -71 -62 -43 -46 -54 -53 -62 -41 -8 13 -10 12 -10 -2 0 -10 -4 -18 -8
-18 -5 0 -8 14 -7 31 1 23 -3 33 -16 36 -11 3 -16 9 -14 14 3 4 -5 19 -17 31
-13 13 -22 26 -20 31 1 4 -2 7 -7 7 -4 0 -6 11 -3 25 3 20 9 24 27 19 13 -3
32 -1 42 5 23 13 33 14 33 1z m-1131 -9 c10 -6 10 -13 2 -29 -8 -15 -8 -22 2
-25 8 -4 7 -6 -3 -6 -20 -1 -41 34 -34 54 7 17 13 18 33 6z m1979 -43 c0 -7 7
-44 15 -83 8 -38 17 -89 21 -112 l6 -43 -52 31 c-29 17 -54 32 -55 33 -4 3 26
109 36 131 5 11 12 28 15 38 6 20 12 22 14 5z m-608 -28 c-19 -13 -30 -13 -30
0 0 6 10 10 23 10 18 0 19 -2 7 -10z m-1390 -10 c0 -5 -2 -10 -4 -10 -3 0 -8
5 -11 10 -3 6 -1 10 4 10 6 0 11 -4 11 -10z m-29 -93 c-13 -13 -15 15 -3 53 7
24 7 23 10 -9 2 -18 -1 -38 -7 -44z m1917 38 c-3 -3 -9 2 -12 12 -6 14 -5 15
5 6 7 -7 10 -15 7 -18z m595 18 c-7 -2 -19 -2 -25 0 -7 3 -2 5 12 5 14 0 19
-2 13 -5z m32 -3 c-4 -6 11 -11 37 -12 l43 -1 -45 -6 c-25 -4 -47 -5 -49 -4
-5 3 7 33 14 33 4 0 3 -4 0 -10z m62 4 c-3 -3 -12 -4 -19 -1 -8 3 -5 6 6 6 11
1 17 -2 13 -5z m30 -31 c-3 -10 -5 -4 -5 12 0 17 2 24 5 18 2 -7 2 -21 0 -30z
m1203 7 c0 -5 -5 -10 -11 -10 -5 0 -7 5 -4 10 3 6 8 10 11 10 2 0 4 -4 4 -10z
m-1973 -22 c-3 -8 -6 -5 -6 6 -1 11 2 17 5 13 3 -3 4 -12 1 -19z m39 -4 c-3
-9 -6 -22 -6 -31 0 -9 -6 -13 -15 -9 -16 6 -21 -9 -6 -18 11 -7 21 -56 11 -56
-4 0 -11 -11 -14 -25 -4 -14 -11 -25 -16 -25 -13 0 -13 4 3 43 8 19 11 40 6
52 -12 31 -10 45 6 45 8 0 15 9 15 20 0 11 5 20 11 20 6 0 8 -7 5 -16z m-916
-4 c0 -5 -2 -10 -4 -10 -3 0 -8 5 -11 10 -3 6 -1 10 4 10 6 0 11 -4 11 -10z
m50 6 c0 -11 -19 -15 -25 -6 -3 5 1 10 9 10 9 0 16 -2 16 -4z m1624 -29 c-3
-9 -11 -17 -16 -17 -6 0 -7 7 -4 16 3 9 6 21 6 27 0 8 3 8 10 1 6 -6 8 -18 4
-27z m-34 13 c0 -5 -22 -10 -49 -10 -27 0 -56 -3 -65 -6 -10 -4 -16 -1 -16 8
0 10 17 15 65 16 40 2 65 -1 65 -8z m180 0 c0 -13 -11 -13 -30 0 -12 8 -11 10
8 10 12 0 22 -4 22 -10z m-2800 -64 c0 -6 -4 -5 -9 3 -5 8 -14 10 -22 5 -11
-6 -12 -5 -2 8 7 8 12 17 10 19 -1 2 4 -2 11 -10 6 -8 12 -20 12 -25z m2770
30 c0 -3 -4 -8 -10 -11 -5 -3 -10 -1 -10 4 0 6 5 11 10 11 6 0 10 -2 10 -4z
m-650 -36 c0 -5 -4 -10 -10 -10 -5 0 -10 5 -10 10 0 6 5 10 10 10 6 0 10 -4
10 -10z m170 -46 c0 -8 -4 -12 -10 -9 -5 3 -10 10 -10 16 0 5 5 9 10 9 6 0 10
-7 10 -16z m57 10 c-3 -3 -12 -4 -19 -1 -8 3 -5 6 6 6 11 1 17 -2 13 -5z m-17
-40 c0 -8 -4 -14 -10 -14 -5 0 -10 9 -10 21 0 11 5 17 10 14 6 -3 10 -13 10
-21z m50 5 c0 -6 -4 -7 -10 -4 -5 3 -10 11 -10 16 0 6 5 7 10 4 6 -3 10 -11
10 -16z m-1240 -59 c0 -5 -5 -10 -11 -10 -5 0 -7 5 -4 10 3 6 8 10 11 10 2 0
4 -4 4 -10z m-1135 -49 c-6 -25 -6 -25 14 -7 26 24 28 13 2 -13 -17 -17 -20
-17 -25 -4 -4 9 -4 24 -1 34 10 32 -15 21 -26 -11 -11 -32 -23 -38 -35 -18 -4
6 -3 8 4 4 6 -4 18 8 28 29 13 29 19 33 31 23 9 -7 12 -20 8 -37z m3781 -26
c-6 -54 -23 -105 -35 -105 -10 0 3 90 18 128 19 47 25 39 17 -23z m-3798 -20
c-3 -3 -9 2 -12 12 -6 14 -5 15 5 6 7 -7 10 -15 7 -18z m-40 -23 c5 -16 -10
-15 -33 1 -17 13 -16 14 5 12 13 -1 26 -7 28 -13z m-23 -35 c-11 -9 -15 -19
-10 -27 5 -9 4 -11 -3 -6 -16 10 -15 33 1 39 24 10 31 7 12 -6z m2985 9 c0 -3
-4 -8 -10 -11 -5 -3 -10 -1 -10 4 0 6 5 11 10 11 6 0 10 -2 10 -4z m-37 -133
c-7 -2 -9 -11 -6 -19 6 -15 -12 -20 -22 -5 -7 12 25 45 34 35 3 -4 1 -9 -6
-11z m-42 -56 c-10 -9 -11 -8 -5 6 3 10 9 15 12 12 3 -3 0 -11 -7 -18z m22
-57 c-3 -11 -26 -34 -50 -51 -25 -16 -43 -24 -40 -17 21 50 35 69 57 77 36 14
39 13 33 -9z m69 -5 c3 -13 1 -22 -3 -19 -8 4 -13 -17 -10 -38 0 -4 -8 -10
-19 -13 -12 -4 -17 -12 -13 -22 4 -11 2 -14 -5 -9 -17 10 -15 23 8 46 11 11
16 20 11 20 -4 0 -6 12 -3 26 3 19 7 22 13 12 7 -10 9 -9 9 5 0 25 7 21 12 -8z
m213 -27 c4 4 5 -3 2 -15 -6 -25 3 -29 21 -11 9 9 12 4 12 -24 0 -19 -7 -41
-15 -48 -8 -7 -15 -19 -15 -27 0 -11 6 -8 20 8 l19 24 -10 -38 c-9 -32 -8 -42
6 -57 13 -14 16 -30 12 -62 -9 -68 -19 -108 -27 -108 -21 0 -28 38 -32 177 -2
104 -7 156 -16 165 -16 16 -15 33 1 19 8 -6 17 -7 22 -3z m-325 -113 c-5 -14
-10 -37 -10 -50 0 -33 -12 -37 -48 -19 -37 18 -34 33 17 87 27 29 37 34 43 23
5 -8 4 -26 -2 -41z m437 18 c-3 -10 -5 -4 -5 12 0 17 2 24 5 18 2 -7 2 -21 0
-30z m-2776 -188 c22 -93 23 -91 -21 -45 -59 62 -62 69 -43 133 l17 55 19 -52
c10 -28 22 -69 28 -91z m3089 100 c0 -5 -5 -3 -10 5 -5 8 -10 20 -10 25 0 6 5
3 10 -5 5 -8 10 -19 10 -25z m-400 -221 c0 -22 -7 -38 -21 -47 -11 -8 -16 -18
-11 -21 6 -3 13 0 15 6 3 7 6 3 6 -9 1 -26 -11 -30 -29 -8 -7 9 -10 26 -6 42
5 21 4 24 -4 13 -8 -13 -10 -13 -10 2 0 34 21 66 41 61 14 -4 19 -14 19 -39z
m-1506 -956 c9 -9 16 -23 16 -31 0 -8 9 -25 19 -39 11 -13 23 -37 26 -51 4
-15 11 -30 16 -33 22 -13 -7 -23 -86 -29 -47 -4 -88 -11 -91 -16 -3 -5 -15 -9
-28 -9 -12 0 -27 -5 -34 -12 -9 -9 -12 -8 -12 7 0 18 46 105 61 115 12 8 -1
50 -15 50 -14 0 -56 -45 -56 -60 0 -6 -4 -10 -9 -10 -5 0 -14 -15 -21 -32 -6
-18 -16 -41 -21 -50 -5 -10 -9 -27 -9 -37 0 -11 -4 -22 -9 -25 -5 -3 -12 -20
-15 -38 -3 -18 -8 -44 -11 -58 -21 -98 -26 -138 -31 -235 -3 -60 -9 -135 -13
-165 -5 -30 -6 -71 -4 -91 3 -21 0 -40 -6 -43 -6 -4 -11 -17 -12 -29 0 -15 -5
-9 -15 18 -10 29 -13 33 -10 12 5 -37 -17 -30 -25 9 l-7 29 -1 -27 c-1 -35
-15 -35 -45 -3 -13 14 -31 25 -40 25 -10 0 -24 7 -33 16 -14 14 -14 16 3 29
18 14 18 14 1 15 -10 0 -28 -5 -39 -11 -14 -8 -23 -8 -31 0 -8 8 -7 11 5 11 9
0 18 9 21 19 4 16 -2 21 -34 26 -45 8 -63 0 -54 -24 5 -12 3 -13 -6 -4 -6 6
-8 17 -3 25 5 7 9 29 10 48 1 43 23 149 35 173 5 9 11 39 14 65 6 63 35 134
94 229 14 23 31 42 36 43 6 0 23 16 38 35 15 19 34 35 41 35 8 0 20 9 27 21 8
11 21 21 29 23 21 3 55 23 75 42 9 9 36 19 61 22 24 2 47 9 50 13 3 5 17 9 32
9 15 0 33 4 40 9 20 12 57 7 76 -11z m-627 -374 c3 -8 1 -20 -6 -27 -6 -6 -11
-16 -11 -23 0 -6 -7 -29 -16 -50 -9 -22 -18 -52 -20 -69 -8 -66 -24 -116 -36
-109 -6 4 -8 -3 -4 -17 3 -13 3 -18 0 -11 -3 6 -12 12 -20 12 -8 0 -14 7 -14
15 0 8 -9 15 -20 15 -11 0 -20 4 -20 9 0 5 -9 7 -20 4 -11 -3 -27 -3 -35 1
-13 5 -14 8 -3 20 7 8 17 13 22 13 5 -1 11 4 13 11 3 8 -2 10 -14 6 -17 -5
-17 -5 0 9 9 8 17 19 17 24 0 5 15 24 33 41 17 17 38 38 45 47 7 8 18 12 24 9
7 -4 8 -2 4 5 -5 7 4 24 22 41 17 16 28 31 24 34 -3 3 2 6 12 6 9 0 19 -7 23
-16z m-182 -283 c9 -15 -12 -22 -42 -15 -25 7 -25 8 -8 15 28 11 43 11 50 0z
m35 -47 c0 -8 -5 -12 -10 -9 -6 4 -8 11 -5 16 9 14 15 11 15 -7z m50 -3 c0 -5
-7 -12 -16 -15 -14 -5 -15 -4 -4 9 14 17 20 19 20 6z m0 -45 c0 -2 -7 -6 -15
-10 -8 -3 -15 -1 -15 4 0 6 7 10 15 10 8 0 15 -2 15 -4z m0 -80 c0 -3 -4 -8
-10 -11 -5 -3 -10 -1 -10 4 0 6 5 11 10 11 6 0 10 -2 10 -4z m-43 -28 c-3 -8
-6 -5 -6 6 -1 11 2 17 5 13 3 -3 4 -12 1 -19z m390 -100 c-3 -8 -6 -5 -6 6 -1
11 2 17 5 13 3 -3 4 -12 1 -19z m-327 -108 c0 -5 -4 -10 -10 -10 -5 0 -10 5
-10 10 0 6 5 10 10 10 6 0 10 -4 10 -10z m-1220 -364 c0 -3 -4 -8 -10 -11 -5
-3 -10 -1 -10 4 0 6 5 11 10 11 6 0 10 -2 10 -4z m1567 -22 c-3 -3 -12 -4 -19
-1 -8 3 -5 6 6 6 11 1 17 -2 13 -5z m-1607 -683 c0 -6 -4 -12 -8 -15 -5 -3 -9
1 -9 9 0 8 4 15 9 15 4 0 8 -4 8 -9z m-70 -201 c0 -5 -2 -10 -4 -10 -3 0 -8 5
-11 10 -3 6 -1 10 4 10 6 0 11 -4 11 -10z m2367 -46 c46 -12 67 -73 51 -147
-7 -36 -15 -47 -38 -57 -16 -7 -36 -10 -43 -7 -21 8 -48 72 -53 124 -4 38 0
51 17 70 24 24 31 26 66 17z m2063 -124 c0 -5 -5 -10 -11 -10 -5 0 -7 5 -4 10
3 6 8 10 11 10 2 0 4 -4 4 -10z m-269 -12 c-23 -6 -37 -6 -44 1 -8 8 2 11 34
10 l44 -1 -34 -10z m549 -49 c0 -5 -4 -9 -10 -9 -5 0 -10 7 -10 16 0 8 5 12
10 9 6 -3 10 -10 10 -16z m111 -28 c-10 -6 -12 -20 -8 -45 6 -36 -6 -50 -17
-20 -8 21 -8 59 1 67 3 4 13 7 22 7 13 0 14 -2 2 -9z m-101 -22 c0 -6 -4 -7
-10 -4 -5 3 -10 11 -10 16 0 6 5 7 10 4 6 -3 10 -11 10 -16z m107 -21 c-3 -7
-5 -2 -5 12 0 14 2 19 5 13 2 -7 2 -19 0 -25z m-775 7 c0 -5 -5 -11 -11 -13
-6 -2 -11 4 -11 13 0 9 5 15 11 13 6 -2 11 -8 11 -13z m365 -17 c-3 -8 -6 -5
-6 6 -1 11 2 17 5 13 3 -3 4 -12 1 -19z m283 -11 c0 -5 -4 -5 -10 -2 -5 3 -10
14 -10 23 0 15 2 15 10 2 5 -8 10 -19 10 -23z m77 1 c-3 -8 -6 -5 -6 6 -1 11
2 17 5 13 3 -3 4 -12 1 -19z m134 -11 c-10 -9 -11 -8 -5 6 3 10 9 15 12 12 3
-3 0 -11 -7 -18z m-226 -7 c3 -5 1 -10 -4 -10 -6 0 -11 5 -11 10 0 6 2 10 4
10 3 0 8 -4 11 -10z m126 -10 c5 0 9 -4 9 -9 0 -5 -11 -8 -25 -8 -15 0 -25 5
-25 14 0 10 6 13 16 9 9 -3 20 -6 25 -6z m-64 -62 c-3 -8 -6 -5 -6 6 -1 11 2
17 5 13 3 -3 4 -12 1 -19z m57 -5 c-12 -48 -25 -62 -22 -23 2 41 6 50 19 50 5
0 7 -12 3 -27z m-54 -33 c0 -5 -4 -10 -10 -10 -5 0 -10 5 -10 10 0 6 5 10 10
10 6 0 10 -4 10 -10z m-4453 -42 c-3 -8 -6 -5 -6 6 -1 11 2 17 5 13 3 -3 4
-12 1 -19z m4503 -22 c0 -9 -30 -14 -35 -6 -4 6 3 10 14 10 12 0 21 -2 21 -4z
m-70 -26 c0 -5 -4 -10 -10 -10 -5 0 -10 5 -10 10 0 6 5 10 10 10 6 0 10 -4 10
-10z m-4638 -95 c6 -28 -6 -34 -16 -9 -8 22 -7 34 3 34 5 0 11 -11 13 -25z
m122 -44 c3 -5 -1 -11 -9 -15 -9 -3 -15 0 -15 9 0 16 16 20 24 6z m99 -17 c-4
-10 -9 -12 -15 -6 -12 12 -1 35 12 27 5 -3 6 -13 3 -21z m314 -21 c-3 -10 -5
-2 -5 17 0 19 2 27 5 18 2 -10 2 -26 0 -35z m-387 9 c0 -5 -12 -14 -27 -21
-28 -13 -28 -13 -9 8 20 22 36 27 36 13z m-10 -52 c0 -5 -4 -10 -10 -10 -5 0
-10 5 -10 10 0 6 5 10 10 10 6 0 10 -4 10 -10z m20 -90 c0 -5 -5 -10 -11 -10
-5 0 -7 5 -4 10 3 6 8 10 11 10 2 0 4 -4 4 -10z m3690 -4 c0 -11 -19 -15 -25
-6 -3 5 1 10 9 10 9 0 16 -2 16 -4z m161 -25 c7 11 9 11 9 -3 0 -15 -9 -18
-57 -17 -40 0 -52 3 -38 8 11 5 23 7 27 5 4 -3 10 0 13 6 5 8 11 7 22 -1 12
-10 16 -10 24 2z m-3228 -38 c-24 -2 -62 -2 -85 0 -24 2 -5 4 42 4 47 0 66 -2
43 -4z m-206 -29 c-3 -3 -12 -4 -19 -1 -8 3 -5 6 6 6 11 1 17 -2 13 -5z m3478
-41 c-1 -16 -15 -32 -15 -18 0 3 0 12 0 20 0 8 4 15 8 15 5 0 8 -8 7 -17z
m-282 0 c-7 -2 -19 -2 -25 0 -7 3 -2 5 12 5 14 0 19 -2 13 -5z m0 -20 c-7 -2
-19 -2 -25 0 -7 3 -2 5 12 5 14 0 19 -2 13 -5z m210 0 c-24 -2 -62 -2 -85 0
-24 2 -5 4 42 4 47 0 66 -2 43 -4z"/>
<path d="M2450 5660 c0 -5 5 -10 10 -10 6 0 10 5 10 10 0 6 -4 10 -10 10 -5 0
-10 -4 -10 -10z"/>
<path d="M2448 5613 c7 -3 16 -2 19 1 4 3 -2 6 -13 5 -11 0 -14 -3 -6 -6z"/>
<path d="M2480 5604 c0 -8 5 -12 10 -9 6 3 10 10 10 16 0 5 -4 9 -10 9 -5 0
-10 -7 -10 -16z"/>
<path d="M2440 5586 c0 -2 9 -6 20 -9 11 -3 18 -1 14 4 -5 9 -34 13 -34 5z"/>
<path d="M2642 5363 c12 -15 58 -18 58 -4 0 5 -16 11 -35 13 -27 3 -32 1 -23
-9z"/>
<path d="M4220 5325 c0 -15 4 -24 10 -20 6 3 10 12 10 20 0 8 -4 17 -10 20 -6
4 -10 -5 -10 -20z"/>
<path d="M4510 5316 c0 -2 11 -6 25 -8 14 -3 25 -1 25 3 0 5 -11 9 -25 9 -14
0 -25 -2 -25 -4z"/>
<path d="M2586 5301 c-12 -5 -15 -10 -9 -14 6 -4 16 0 23 8 14 17 13 17 -14 6z"/>
<path d="M2637 5283 c3 -7 6 -13 8 -13 1 0 7 6 13 13 8 10 6 13 -7 13 -11 0
-17 -6 -14 -13z"/>
<path d="M3855 5290 c3 -5 8 -10 11 -10 2 0 4 5 4 10 0 6 -5 10 -11 10 -5 0
-7 -4 -4 -10z"/>
<path d="M4252 5280 c-8 -13 -8 -20 -2 -20 6 0 13 7 17 15 9 24 -1 27 -15 5z"/>
<path d="M2997 5224 c-3 -5 1 -15 9 -22 16 -14 18 -5 5 17 -5 7 -11 9 -14 5z"/>
<path d="M4560 5210 c0 -5 7 -10 15 -10 8 0 15 5 15 10 0 6 -7 10 -15 10 -8 0
-15 -4 -15 -10z"/>
<path d="M2986 5185 c5 -13 4 -16 -4 -11 -8 5 -10 2 -6 -8 5 -12 10 -13 24 -3
11 6 18 12 17 12 -1 0 -10 7 -20 14 -15 12 -17 12 -11 -4z"/>
<path d="M3413 5139 c-18 -5 -33 -16 -33 -24 0 -9 6 -12 15 -9 19 8 110 -14
155 -36 71 -35 155 -83 171 -96 22 -20 51 -18 47 3 -4 23 -103 82 -214 128
-112 47 -103 45 -141 34z"/>
<path d="M4562 5080 c0 -19 2 -27 5 -17 2 9 2 25 0 35 -3 9 -5 1 -5 -18z"/>
<path d="M4491 5044 c0 -11 3 -14 6 -6 3 7 2 16 -1 19 -3 4 -6 -2 -5 -13z"/>
<path d="M4190 5001 c-13 -17 -28 -27 -33 -24 -5 3 -6 -4 -2 -16 4 -12 2 -21
-4 -21 -6 0 -11 -9 -11 -19 0 -24 -28 -76 -58 -107 -13 -13 -29 -39 -37 -57
-8 -17 -25 -44 -39 -59 -24 -25 -27 -58 -6 -58 5 0 36 32 70 71 67 79 67 80
24 -65 -29 -96 -31 -142 -6 -155 14 -7 17 -5 18 17 1 15 7 45 13 67 7 22 14
58 16 79 3 22 8 42 13 45 4 3 7 19 7 35 -1 16 7 44 17 62 10 19 18 39 18 44 0
6 9 30 20 52 11 23 20 49 20 58 0 9 5 21 11 27 8 8 8 17 0 32 -15 28 -22 27
-51 -8z"/>
<path d="M4490 4981 c0 -23 26 -35 34 -16 3 10 0 12 -11 8 -12 -5 -15 -2 -10
10 3 9 2 17 -3 17 -6 0 -10 -9 -10 -19z"/>
<path d="M4095 4900 c3 -5 8 -10 11 -10 2 0 4 5 4 10 0 6 -5 10 -11 10 -5 0
-7 -4 -4 -10z"/>
<path d="M4318 4801 c-17 -20 -58 -107 -58 -122 0 -5 -21 -41 -46 -81 -43 -66
-79 -146 -71 -155 8 -7 97 93 97 109 0 9 4 18 8 20 10 4 66 122 80 168 24 83
22 98 -10 61z"/>
<path d="M2455 4750 c3 -5 10 -10 16 -10 5 0 9 5 9 10 0 6 -7 10 -16 10 -8 0
-12 -4 -9 -10z"/>
<path d="M2856 4654 c11 -76 19 -99 35 -99 26 0 -1 134 -29 143 -11 3 -12 -6
-6 -44z"/>
<path d="M3732 4639 c2 -7 10 -15 17 -17 8 -3 12 1 9 9 -2 7 -10 15 -17 17 -8
3 -12 -1 -9 -9z"/>
<path d="M4690 4517 c-23 -52 -21 -68 6 -46 24 19 36 58 25 77 -8 14 -14 8
-31 -31z"/>
<path d="M3222 4020 c-13 -6 -82 -13 -153 -17 -71 -3 -129 -10 -129 -14 0 -17
56 -22 181 -15 126 6 204 22 204 41 0 13 -74 17 -103 5z"/>
<path d="M1720 5561 c0 -6 5 -13 12 -17 6 -4 8 -3 4 4 -3 5 0 13 6 15 8 3 6 6
-4 6 -10 1 -18 -3 -18 -8z"/>
<path d="M4851 4704 c0 -11 3 -14 6 -6 3 7 2 16 -1 19 -3 4 -6 -2 -5 -13z"/>
<path d="M4871 4533 c0 -12 -4 -30 -7 -40 -5 -17 -5 -17 6 0 6 10 9 28 7 40
-4 22 -4 22 -6 0z"/>
<path d="M2535 2810 c-16 -7 -17 -9 -3 -9 9 -1 20 4 23 9 7 11 7 11 -20 0z"/>
<path d="M2528 2753 c7 -3 16 -2 19 1 4 3 -2 6 -13 5 -11 0 -14 -3 -6 -6z"/>
<path d="M3650 950 c0 -5 5 -10 10 -10 6 0 10 5 10 10 0 6 -4 10 -10 10 -5 0
-10 -4 -10 -10z"/>
<path d="M2050 6500 c-19 -10 -71 -26 -115 -35 -44 -10 -75 -20 -68 -22 10 -4
65 5 129 20 36 9 91 35 98 46 9 15 -2 12 -44 -9z"/>
<path d="M1819 5863 c-6 -41 -5 -74 2 -79 5 -3 6 3 3 13 -5 16 -4 16 10 -1 14
-17 16 -18 16 -3 0 9 -5 17 -11 17 -6 0 -8 7 -5 16 4 9 2 13 -5 8 -8 -4 -9 1
-4 15 3 11 4 21 1 21 -3 0 -6 -3 -7 -7z"/>
<path d="M1880 5795 c0 -8 5 -15 10 -15 6 0 10 7 10 15 0 8 -4 15 -10 15 -5 0
-10 -7 -10 -15z"/>
<path d="M1940 5780 c36 -12 60 -12 60 0 0 6 -19 10 -42 9 -37 -1 -39 -2 -18
-9z"/>
<path d="M2080 5760 c0 -5 7 -10 15 -10 8 0 15 5 15 10 0 6 -7 10 -15 10 -8 0
-15 -4 -15 -10z"/>
<path d="M1820 5719 c0 -5 5 -7 10 -4 6 3 10 8 10 11 0 2 -4 4 -10 4 -5 0 -10
-5 -10 -11z"/>
<path d="M2080 5720 c0 -5 7 -10 15 -10 8 0 15 5 15 10 0 6 -7 10 -15 10 -8 0
-15 -4 -15 -10z"/>
<path d="M2143 5703 c11 -3 16 -11 13 -19 -3 -8 -2 -13 3 -10 5 3 7 -19 5 -49
-2 -33 0 -55 6 -55 5 0 10 9 10 19 0 11 5 23 11 26 6 5 4 12 -7 20 -16 11 -16
13 2 24 18 11 18 12 1 25 -14 10 -15 15 -5 19 7 3 -3 5 -22 5 -19 0 -27 -2
-17 -5z"/>
<path d="M1785 5680 c-3 -5 3 -10 15 -10 12 0 18 5 15 10 -3 6 -10 10 -15 10
-5 0 -12 -4 -15 -10z"/>
<path d="M1826 5651 c-4 -7 -5 -15 -2 -18 9 -9 19 4 14 18 -4 11 -6 11 -12 0z"/>
<path d="M2095 5630 c-3 -5 -1 -10 5 -10 6 0 8 -10 4 -25 -5 -21 -3 -25 16
-25 19 0 21 4 16 25 -4 15 -2 25 4 25 6 0 8 5 5 10 -3 6 -15 10 -25 10 -10 0
-22 -4 -25 -10z"/>
<path d="M2010 5626 c0 -2 9 -6 20 -9 11 -3 18 -1 14 4 -5 9 -34 13 -34 5z"/>
<path d="M2113 5523 c-15 -5 -18 -43 -4 -43 5 0 11 11 13 25 3 14 5 25 4 24 0
0 -7 -3 -13 -6z"/>
<path d="M2150 5504 c0 -8 5 -12 10 -9 6 3 10 10 10 16 0 5 -4 9 -10 9 -5 0
-10 -7 -10 -16z"/>
<path d="M1830 5481 c0 -11 -6 -21 -12 -23 -7 -3 7 -8 31 -12 50 -8 67 -1 22
9 -32 7 -41 20 -19 27 7 3 6 7 -5 11 -12 5 -17 1 -17 -12z"/>
<path d="M1925 5445 c-3 -8 -7 -22 -10 -30 -2 -8 0 -15 5 -15 6 0 10 8 10 18
0 10 5 23 12 30 9 9 9 12 0 12 -7 0 -15 -7 -17 -15z"/>
<path d="M1975 5447 c-4 -10 -5 -21 -1 -24 10 -10 18 4 13 24 -4 17 -4 17 -12
0z"/>
<path d="M1848 5413 c7 -3 16 -2 19 1 4 3 -2 6 -13 5 -11 0 -14 -3 -6 -6z"/>
<path d="M4966 4442 c-12 -19 -16 -53 -5 -47 5 4 7 10 4 15 -3 4 0 10 6 12 7
2 10 10 7 18 -3 10 -6 11 -12 2z"/>
<path d="M1357 3597 c-45 -18 -70 -84 -64 -166 4 -37 15 -91 26 -119 12 -29
17 -52 13 -52 -4 0 -22 9 -41 21 -68 41 -188 37 -261 -9 -41 -26 -42 -28 -38
-73 5 -46 30 -91 80 -141 32 -33 92 -43 194 -34 87 7 87 7 54 -103 -21 -70
-33 -183 -33 -294 l0 -68 -29 28 c-15 15 -28 32 -28 38 0 23 -46 54 -95 65
-72 16 -165 10 -165 -11 0 -5 -16 -31 -35 -58 -19 -26 -35 -55 -35 -62 0 -17
-40 -98 -57 -117 -7 -7 -13 -19 -13 -25 0 -7 -12 -34 -25 -62 -14 -27 -25 -57
-25 -67 0 -9 -13 -43 -28 -76 -27 -57 -61 -97 -117 -135 -14 -11 -24 -21 -21
-24 3 -3 -8 -21 -24 -40 -42 -47 -41 -103 0 -160 33 -45 33 -52 -7 -186 -8
-27 -19 -88 -25 -135 -6 -48 -14 -91 -19 -96 -5 -6 -9 -18 -9 -29 0 -10 -7
-26 -16 -35 -13 -13 -15 -27 -9 -76 14 -121 8 -222 -14 -265 -6 -11 -11 -30
-11 -42 0 -12 -13 -49 -29 -83 -28 -59 -77 -218 -88 -283 -3 -19 2 -51 13 -79
l18 -47 -45 -41 c-24 -23 -66 -60 -94 -83 -42 -36 -50 -49 -52 -80 -4 -54 -18
-127 -41 -211 -11 -40 -17 -74 -13 -76 3 -1 77 -4 165 -5 145 -2 158 -1 152
14 -14 39 -17 63 -7 69 6 4 11 37 11 74 0 62 -8 95 -24 93 -17 -3 -18 1 0 20
10 12 19 29 20 38 0 9 4 37 8 63 7 42 5 53 -29 115 -47 87 -55 149 -26 198 11
20 21 44 21 54 0 39 70 255 101 314 6 10 10 60 9 110 -2 182 -1 197 22 227 17
23 22 50 28 137 4 59 16 135 25 168 28 96 28 98 1 165 -30 73 -35 150 -11 170
9 7 38 23 65 36 32 15 54 32 60 48 12 33 46 66 57 56 4 -5 35 0 67 11 33 10
68 19 78 19 25 0 58 18 58 31 0 7 -14 8 -39 4 -60 -10 -152 -41 -145 -48 4 -4
2 -7 -4 -7 -14 0 -16 61 -3 75 5 6 19 39 31 75 12 36 26 74 30 85 5 11 16 40
25 65 9 25 23 52 31 60 8 8 32 43 54 78 36 57 42 62 61 52 11 -7 40 -9 62 -7
37 4 46 1 74 -27 18 -17 33 -36 33 -43 0 -7 6 -16 13 -20 6 -4 25 -33 41 -63
31 -57 49 -80 63 -80 4 0 16 -7 27 -15 14 -11 19 -31 22 -92 3 -43 7 -88 9
-100 4 -15 -1 -26 -15 -33 -11 -6 -20 -17 -20 -25 0 -17 26 -20 35 -5 11 17
35 11 35 -9 0 -11 5 -23 10 -26 6 -4 8 9 5 37 -3 24 -7 93 -10 153 -8 170 -14
200 -47 211 -18 5 -19 11 -12 52 4 26 9 70 10 97 3 81 4 86 13 81 4 -3 11 -23
15 -44 7 -49 79 -121 117 -117 13 1 36 3 51 4 37 2 94 60 108 111 11 42 8 118
-5 140 -14 22 -23 80 -13 80 5 0 30 -11 56 -25 26 -14 54 -25 63 -25 65 0 135
68 131 128 -4 47 -19 74 -72 120 -70 61 -97 71 -198 74 l-91 2 1 71 c0 167
-19 285 -46 285 -6 0 -22 12 -35 25 -25 27 -65 31 -114 12z m115 -60 c30 -33
41 -97 43 -244 1 -132 -1 -143 -18 -143 -19 0 -28 6 -78 53 -54 50 -99 207
-85 300 6 37 12 48 38 60 35 17 70 8 100 -26z m-242 -273 c25 -3 52 -15 61
-25 9 -11 20 -19 25 -19 5 0 17 -8 26 -17 10 -10 31 -31 48 -48 38 -38 38 -54
0 -61 -16 -4 -30 -10 -30 -14 0 -5 -24 -12 -52 -16 -118 -18 -193 -1 -236 54
-41 52 -49 93 -22 118 23 20 95 44 120 39 8 -2 35 -7 60 -11z m500 -109 c19
-2 40 -11 46 -20 6 -8 15 -15 20 -15 16 0 80 -130 69 -138 -6 -4 -18 -19 -28
-34 -9 -15 -27 -30 -40 -33 -25 -7 -41 6 -174 132 l-75 72 18 26 c20 27 33 28
164 10z m-180 -127 c0 -7 18 -50 39 -94 40 -84 68 -223 48 -243 -4 -4 -10 -16
-11 -25 -4 -25 -25 -36 -73 -36 -42 0 -83 22 -83 45 0 5 -7 24 -16 40 -31 59
-41 120 -33 207 10 107 16 129 46 154 l24 21 30 -28 c16 -15 29 -33 29 -41z
m-183 -130 c-3 -8 -6 -5 -6 6 -1 11 2 17 5 13 3 -3 4 -12 1 -19z m-47 -348 c0
-5 -4 -10 -10 -10 -5 0 -10 5 -10 10 0 6 5 10 10 10 6 0 10 -4 10 -10z m66
-64 c3 -8 4 -23 2 -32 -3 -17 -4 -17 -20 0 -10 10 -18 24 -18 32 0 18 29 18
36 0z"/>
<path d="M1023 2352 c4 -21 0 -33 -14 -46 -24 -20 -16 -38 15 -30 16 4 25 -1
35 -18 7 -13 23 -31 37 -41 23 -17 24 -17 24 1 0 22 -14 52 -46 97 -11 17 -24
38 -27 48 -11 29 -30 20 -24 -11z"/>
<path d="M1076 2172 c8 -15 14 -32 14 -38 0 -5 48 -57 107 -115 79 -77 108
-100 111 -87 4 19 -67 103 -130 154 -7 6 -31 31 -52 57 -47 55 -71 69 -50 29z"/>
<path d="M1200 2151 c0 -11 5 -23 11 -26 5 -4 14 -18 19 -31 11 -29 30 -32 30
-5 0 26 -32 81 -47 81 -7 0 -13 -9 -13 -19z"/>
<path d="M954 1873 c-41 -22 -56 -25 -106 -19 -32 3 -58 2 -58 -3 0 -22 182
-42 195 -21 3 6 -2 10 -12 10 -29 0 7 20 37 20 29 0 58 16 48 26 -16 16 -60
10 -104 -13z"/>
<path d="M1030 1756 c0 -35 100 -203 127 -213 28 -11 24 7 -14 64 -22 32 -52
79 -67 106 -15 26 -32 47 -37 47 -5 0 -9 -2 -9 -4z"/>
<path d="M780 1573 c-45 -17 -119 -53 -124 -62 -13 -21 12 -18 94 10 47 16 90
29 96 29 6 0 29 -40 52 -90 28 -59 51 -95 69 -107 55 -35 55 -36 55 -166 -1
-67 -4 -137 -8 -154 -8 -42 1 -79 22 -87 14 -5 15 1 10 44 -6 48 -2 58 19 42
12 -8 14 -72 3 -72 -5 0 -8 -6 -8 -14 0 -8 -12 -17 -26 -20 -22 -6 -36 1 -75
34 -47 40 -49 40 -49 17 0 -33 40 -73 88 -88 36 -10 45 -9 74 8 37 22 47 62
29 123 -5 19 -15 58 -21 85 -7 28 -17 60 -23 73 -12 25 -5 36 32 47 23 7 23 6
16 -43 -4 -29 -2 -58 3 -68 8 -15 12 -11 22 26 6 25 19 70 29 101 11 38 14 63
8 76 -6 15 -2 34 16 69 42 84 44 123 6 92 -19 -16 -53 -105 -51 -133 3 -37
-18 -85 -38 -85 -10 0 -29 15 -42 33 -12 17 -30 39 -39 47 -29 25 -79 102 -79
120 0 9 -9 25 -19 34 -11 10 -22 27 -25 39 -9 35 -71 56 -116 40z"/>
<path d="M750 1194 c0 -18 28 -30 40 -18 5 5 -1 14 -16 21 -19 9 -24 8 -24 -3z"/>
<path d="M867 1083 c-4 -6 0 -19 8 -29 11 -15 14 -16 15 -4 0 21 -16 44 -23
33z"/>
<path d="M901 1024 c0 -11 3 -14 6 -6 3 7 2 16 -1 19 -3 4 -6 -2 -5 -13z"/>
<path d="M6333 663 c9 -2 23 -2 30 0 6 3 -1 5 -18 5 -16 0 -22 -2 -12 -5z"/>
<path d="M6280 645 c0 -8 5 -15 10 -15 6 0 10 7 10 15 0 8 -4 15 -10 15 -5 0
-10 -7 -10 -15z"/>
<path d="M6160 601 c0 -6 13 -11 29 -11 16 0 37 -7 45 -16 16 -16 21 -8 8 13
-10 16 -82 28 -82 14z"/>
<path d="M6277 577 c-18 -19 -40 -36 -50 -40 -10 -4 -15 -11 -12 -17 3 -5 3
-15 -1 -22 -5 -8 -11 -5 -20 7 -8 10 -17 16 -20 12 -4 -3 1 -13 9 -22 16 -15
13 -45 -4 -45 -5 0 -9 -9 -9 -21 0 -12 -14 -34 -31 -50 -18 -17 -28 -33 -23
-40 5 -8 2 -10 -9 -6 -18 7 -29 -15 -20 -40 4 -11 3 -14 -5 -9 -7 4 -12 1 -12
-9 0 -11 -5 -15 -14 -12 -10 4 -13 1 -10 -7 3 -8 -5 -23 -17 -35 -13 -12 -20
-21 -16 -21 11 0 -24 -63 -45 -82 -24 -20 -29 -73 -8 -73 8 0 21 -4 29 -9 9
-6 12 -5 7 2 -3 6 -2 13 4 17 6 4 21 27 34 53 30 59 64 95 82 88 12 -4 12 -2
4 14 -8 16 -6 26 12 50 12 16 25 30 30 30 4 0 8 7 8 15 0 8 4 15 8 15 5 0 16
18 26 40 14 32 21 39 31 30 8 -6 29 -10 47 -7 l33 4 -38 1 c-43 2 -58 23 -35
50 8 9 18 25 21 35 4 9 13 17 22 17 8 0 15 5 15 10 0 6 9 19 20 30 24 24 26
65 4 74 -10 4 -27 -6 -47 -27z"/>
<path d="M1330 569 c0 -5 5 -7 10 -4 6 3 10 8 10 11 0 2 -4 4 -10 4 -5 0 -10
-5 -10 -11z"/>
<path d="M5902 568 c-7 -7 -12 -16 -12 -20 0 -12 28 -10 36 3 10 17 -10 31
-24 17z"/>
<path d="M1361 534 c0 -11 3 -14 6 -6 3 7 2 16 -1 19 -3 4 -6 -2 -5 -13z"/>
<path d="M5626 521 c-4 -7 -5 -15 -2 -18 9 -9 19 4 14 18 -4 11 -6 11 -12 0z"/>
<path d="M6727 518 c-5 -18 3 -48 14 -48 14 0 11 28 -3 33 -10 4 -10 6 0 6 6
1 12 6 12 11 0 14 -18 12 -23 -2z"/>
<path d="M1326 501 c-4 -6 -5 -20 -1 -30 4 -15 0 -20 -17 -23 -20 -3 -23 -8
-22 -43 4 -122 9 -175 17 -175 4 0 7 -6 6 -12 -1 -7 3 -26 10 -43 7 -16 10
-40 8 -52 -2 -13 0 -23 4 -23 5 0 9 -12 9 -27 0 -51 11 -73 36 -73 12 0 26 4
29 10 3 5 2 10 -2 10 -5 0 -13 34 -19 74 -8 67 -7 75 8 79 10 3 19 -2 22 -12
2 -9 2 2 -1 24 -5 38 -4 39 11 20 13 -18 15 -18 16 -3 0 10 -9 22 -19 28 -28
14 -33 13 -29 -12 2 -11 -2 -23 -9 -25 -8 -3 -11 11 -10 44 1 28 6 46 12 43 6
-3 9 -10 9 -17 -1 -6 5 -14 13 -17 12 -5 13 2 7 39 -5 36 -3 46 10 51 26 10
19 20 -22 33 -30 10 -42 21 -51 47 -7 19 -10 42 -7 52 7 21 -8 49 -18 33z m50
-187 c-4 -9 -9 -15 -11 -12 -3 3 -3 13 1 22 4 9 9 15 11 12 3 -3 3 -13 -1 -22z"/>
<path d="M5855 499 c-11 -17 1 -21 15 -4 8 9 8 15 2 15 -6 0 -14 -5 -17 -11z"/>
<path d="M6071 438 c-1 -19 -21 -26 -21 -8 0 6 -4 10 -10 10 -16 0 -11 -17 7
-24 20 -8 37 7 30 26 -4 9 -6 7 -6 -4z"/>
<path d="M6265 430 c-3 -5 -1 -10 4 -10 6 0 11 5 11 10 0 6 -2 10 -4 10 -3 0
-8 -4 -11 -10z"/>
<path d="M498 360 c5 -37 30 -60 42 -40 10 17 -15 70 -34 70 -8 0 -11 -10 -8
-30z"/>
<path d="M6803 350 c0 -16 4 -27 9 -24 4 3 8 14 8 24 0 10 -4 21 -8 24 -5 3
-9 -8 -9 -24z"/>
<path d="M1455 340 c3 -11 3 -30 -1 -42 -7 -22 -7 -22 -15 -3 -5 14 -8 15 -8
4 -1 -8 5 -24 13 -34 8 -11 12 -25 9 -32 -3 -7 0 -13 5 -13 17 0 36 108 22
125 -18 22 -32 18 -25 -5z"/>
<path d="M6843 260 c0 -30 2 -43 4 -27 2 15 2 39 0 55 -2 15 -4 2 -4 -28z"/>
<path d="M5382 280 c-10 -17 -10 -20 3 -20 8 0 15 4 15 8 0 5 10 14 23 20 l22
11 -25 0 c-15 1 -30 -7 -38 -19z"/>
<path d="M6875 269 c-11 -16 -1 -19 13 -3 7 8 8 14 3 14 -5 0 -13 -5 -16 -11z"/>
<path d="M1131 244 c0 -11 3 -14 6 -6 3 7 2 16 -1 19 -3 4 -6 -2 -5 -13z"/>
<path d="M6802 235 c0 -16 2 -22 5 -12 2 9 2 23 0 30 -3 6 -5 -1 -5 -18z"/>
<path d="M6132 216 c7 -8 15 -12 17 -11 5 6 -10 25 -20 25 -5 0 -4 -6 3 -14z"/>
<path d="M5470 211 c0 -6 5 -13 10 -16 6 -3 10 1 10 9 0 9 -4 16 -10 16 -5 0
-10 -4 -10 -9z"/>
<path d="M1171 194 c0 -11 3 -14 6 -6 3 7 2 16 -1 19 -3 4 -6 -2 -5 -13z"/>
<path d="M1431 164 c0 -11 3 -14 6 -6 3 7 2 16 -1 19 -3 4 -6 -2 -5 -13z"/>
<path d="M6840 169 c0 -5 5 -7 10 -4 6 3 10 8 10 11 0 2 -4 4 -10 4 -5 0 -10
-5 -10 -11z"/>
<path d="M5342 153 c37 -2 100 -2 140 0 40 1 10 3 -67 3 -77 0 -110 -1 -73 -3z"/>
<path d="M5940 150 l-25 -8 28 -1 c15 -1 27 4 27 9 0 6 -1 10 -2 9 -2 -1 -14
-5 -28 -9z"/>
<path d="M5458 133 c12 -2 32 -2 45 0 12 2 2 4 -23 4 -25 0 -35 -2 -22 -4z"/>
<path d="M1670 122 c0 -4 9 -8 20 -9 11 -1 18 2 15 8 -7 11 -35 12 -35 1z"/>
<path d="M6801 114 c0 -11 3 -14 6 -6 3 7 2 16 -1 19 -3 4 -6 -2 -5 -13z"/>
<path d="M1913 60 c0 -25 2 -35 4 -22 2 12 2 32 0 45 -2 12 -4 2 -4 -23z"/>
<path d="M1930 10 c0 -5 7 -10 15 -10 8 0 15 5 15 10 0 6 -7 10 -15 10 -8 0
-15 -4 -15 -10z"/>
<path d="M6850 10 c0 -5 5 -10 10 -10 6 0 10 5 10 10 0 6 -4 10 -10 10 -5 0
-10 -4 -10 -10z"/>
</g>
</svg>
